<svg width="580" height="400" xmlns="http://www.w3.org/2000/svg">
 <!-- Created with Method Draw - http://github.com/duopixel/Method-Draw/ -->
 <g>
  <title>background</title>
  <rect fill="#fff" id="canvas_background" height="402" width="582" y="-1" x="-1"/>
  <g display="none" overflow="visible" y="0" x="0" height="100%" width="100%" id="canvasGrid">
   <rect fill="url(#gridpattern)" stroke-width="0" y="0" x="0" height="100%" width="100%"/>
  </g>
 </g>
 <g>
  <title>Layer 1</title>
  <text style="cursor: move;" xml:space="preserve" text-anchor="start" font-family="'League Gothic', sans-serif" font-size="24" id="svg_1" y="127" x="97" stroke-width="0" stroke="#000" fill="#000000">Missy Bur</text>
  <path class="sig" d="m65,224c0,0 0,5 0,8c0,3 -1,5 -1,8c0,4 -0.689259,8.080246 0,11c0.513741,2.176254 0.585785,3.585785 2,5c0.707108,0.707092 3,1 7,1c6,0 8.723991,-1.222733 12,-5c1.853188,-2.136749 3.496223,-3.907791 4,-8c0.488731,-3.970032 -0.610916,-9.03746 0,-14c0.503777,-4.092209 1.824432,-4.097885 3,-6c0.525734,-0.850647 0.458801,-1.693436 1,-3c0.382683,-0.923874 0.386871,-5.082397 3,-4c3.695518,1.530731 -0.919014,9.10701 0,13c0.513741,2.176254 1,6 2,9c1,3 1,7 1,9c0,1 0,1 0,2c0,1 0.765366,2.152237 0,4c-0.541199,1.306564 -2.569504,3.132996 -4,7c-0.775795,2.097168 -1.458801,3.693451 -2,5c-1.148048,2.771637 0,4 0,5c0,1 0,3 0,4l0,1l0,1l0,1" id="svg_2" stroke-width="1.5" stroke="#000" fill="none"/>
  <path d="m151,243c0,2 0,6 0,12c0,7 0.387787,17.100586 2,25c1.455811,7.133057 2.458801,10.693451 3,12c0.38269,0.923889 0,-1 0,-10c0,-17 0,-34 0,-45c0,-9 -0.765366,-15.152237 0,-17c1.082397,-2.613129 2.693436,-3.458801 4,-4c0.923874,-0.38269 3.188828,-0.848312 5,0c7.072876,3.312759 8.672607,12.708481 11,19c2.860992,7.733994 3.881332,12.025208 5,17c0.904556,4.022644 1.097885,6.824432 3,8c0.850647,0.525726 1.486252,1.176239 2,-1c2.297531,-9.732483 1,-21 1,-37c0,-16 0,-27 0,-33c0,-4 0,-6 1,-6c2,0 7.208893,4.865875 11,11c4.238586,6.85817 7.175034,15.962875 9,25c2.213089,10.959122 3.800507,22.051651 7,34c1.883102,7.032349 4.493454,13.878571 5,17c0.320358,1.974182 0,2 1,2c0,0 2,0 3,0c3,0 6.173096,0.147278 7,-1c1.307449,-1.813995 3,-6 3,-12c0,-9 1.448914,-18.214539 0,-23c-1.04483,-3.450851 -2,-4 -3,-5c-1,-1 -0.787598,0.900665 1,5c3.415192,7.831757 8.384583,14.349442 12,20c3.450989,5.393585 5.385101,8.372009 8,12c1.653809,2.294525 3,2 6,2c4,0 6,0 8,-1c2,-1 3,-1 3,-3c0,-1 -1.167969,-3.920349 -3,-8c-2.206055,-4.912567 -2.692535,-8.186005 -4,-10c-0.826904,-1.147263 -1,-2 -1,-3c0,-1 -0.459503,-2.053497 0,-4c0.513733,-2.176254 2.789856,-5.07843 4,-8c0.855713,-2.065857 1.176239,-2.486252 -1,-3c-1.946503,-0.459503 -5.878571,-0.493454 -9,-1c-1.974182,-0.320358 -4,0 -6,0c-1,0 0.038666,-0.55481 4,0c7.209747,1.009766 14.157837,4.662216 23,9c13.255646,6.502945 19.786377,12.178665 24,17c3.837097,4.390503 4,7 4,9c0,3 -1.748505,6.465851 -7,9c-7.694916,3.713226 -14.953308,5.499023 -23,6c-3.992279,0.248535 -8,0 -10,0c-1,0 1.009674,-0.310699 6,0c8.046692,0.500977 19,2 33,2c13,0 23.253998,1.86853 30,0c5.619385,-1.556488 10.475525,-8.593109 12,-17c2.497955,-13.775345 -1.703003,-26.231613 -8,-34c-6.693787,-8.257919 -13,-13 -17,-15c-2,-1 -3.415283,-2.811249 -4,-2c-1.84903,2.565369 8.452362,9.454285 17,17c9.54184,8.42337 18.682495,17.298965 30,29c6.409698,6.626892 10.549011,12.606415 14,18c1.205139,1.883514 1.492706,5.129791 1,6c-2.872894,5.074097 -18.12912,5.601837 -28,4c-9.364319,-1.519623 -15.549164,-5.95517 -19,-7c-0.957092,-0.289795 -1,-1 0,-1c2,0 7,0 13,0c9,0 19.154938,1.92218 31,0c9.364319,-1.519623 17.484467,-5.22937 24,-17c7.051453,-12.7388 5.985382,-31.04866 5,-41c-1.004883,-10.148407 -4.558197,-14.519287 -8,-17c-1.813995,-1.307449 -4,-1 -4,2c0,11 0.9664,21.01268 4,29c4.945343,13.020889 9.889435,23.087097 17,32c8.863556,11.11026 14.746735,17.371338 19,20c3.80423,2.351135 7.516479,2.175079 10,-6c5.076385,-16.710175 7.499634,-33.971207 8,-47c0.537262,-13.989685 1.336304,-21.283676 -1,-29c-1.943939,-6.420364 -6,-11 -8,-13c-1,-1 -3,-1 -5,-1c0,0 -4.051422,5.212646 -1,27c3.029266,21.629227 9.955261,37.40567 17,54c2.621368,6.174805 5.78775,15.034424 8,28c2.738007,16.046906 4.49939,24.962616 5,35c0.647583,12.983856 0.855286,20.05246 0,27c-0.503784,4.092224 -1.823761,6.486267 -4,7c-3.893005,0.919006 -18.429596,-5.699402 -33,-17c-19.291016,-14.961853 -30.73764,-23.237366 -38,-31c-6.763184,-7.229065 -8.498291,-9.937958 -9,-16c-0.412415,-4.982971 3.800842,-12.419891 14,-17c9.825134,-4.41214 22.017395,-4.559235 31,-4c8.046692,0.500977 16.993347,3.05481 25,4c8.99295,1.061615 16,1 20,1l1,-1l0,-1l0,-1" id="svg_3" stroke-width="1.5" stroke="#000" fill="none"/>
 </g>
</svg>